<svg xmlns="http://www.w3.org/2000/svg" viewBox="0 0 500 500"><path fill="#fff" d="M0 0h500v500H0z"/><g fill-rule="evenodd"><path d="M0 0v45.458h45.458V0Zm6.494 6.494v32.47h32.47V6.494Z"/><path d="M12.988 12.988V32.47H32.47V12.988Z"/></g><g fill-rule="evenodd"><path d="M500.038 0H454.58v45.458h45.458Zm-6.494 6.494h-32.47v32.47h32.47Z"/><path d="M487.05 12.988h-19.482V32.47h19.482Z"/></g><g fill-rule="evenodd"><path d="M0 500.038h45.458V454.58H0Zm6.494-6.494h32.47v-32.47H6.494Z"/><path d="M12.988 487.05H32.47v-19.482H12.988Z"/></g><path fill-rule="evenodd" d="M77.928 0v6.494h-6.494v6.494H64.94V6.494h-6.494v6.494h6.494v12.988h6.494v6.494h6.494v12.988h-6.494v-6.494H64.94v19.482H51.952v-6.494H32.47v6.494h12.988v6.494h-6.494v6.494h6.494V64.94h6.494v32.47h-6.494v-6.494h-6.494v6.494H32.47V84.422h12.988v-6.494H19.482v-6.494h-6.494V64.94h6.494v-6.494h-6.494v-6.494H0v6.494h6.494v6.494H0v25.976h12.988v6.494h6.494v6.494H0v19.482h6.494v-12.988h12.988v12.988h-6.494v6.494H6.494v6.494h6.494v6.494H0v6.494h12.988v6.494H0v6.494h19.482v12.988h-6.494v6.494H6.494v6.494h12.988v12.988H6.494v6.494H0v6.494h12.988v-6.494h12.988v-6.494h19.482v-6.494h6.494v12.988H32.47v12.988H12.988v6.494H6.494v-6.494H0v6.494h6.494v6.494H0v6.494h6.494v12.988h6.494v6.494H6.494v12.988H0v19.482h6.494v-12.988h6.494v6.494h6.494v6.494h-6.494v6.494H0v19.482h12.988v6.494H6.494v19.482H0v19.482h6.494v-12.988h6.494v-12.988h6.494v-6.494h6.494v12.988h-6.494v12.988h-6.494v12.988H6.494v6.494H0v6.494h19.482v-6.494H32.47v6.494h12.988v6.494H25.976v6.494h-6.494v-6.494H0v6.494h12.988v6.494H32.47v6.494h12.988v-6.494H32.47v-6.494h19.482v6.494H64.94v6.494H51.952v6.494h6.494v12.988h-6.494v-6.494h-6.494v-6.494H19.482v-6.494H6.494v-6.494H0v6.494h6.494v6.494H0v12.988h6.494v6.494h6.494v-6.494h6.494v-6.494h6.494v19.482H6.494v6.494H32.47v-12.988h12.988v6.494h-6.494v6.494h6.494v-6.494h6.494v-6.494h6.494v12.988h-6.494v19.482h6.494v19.482h-6.494v12.988h6.494v-6.494h12.988v-6.494h6.494v-6.494h12.988v6.494h-6.494v6.494h-6.494v6.494h6.494v-6.494h6.494v-6.494h6.494v6.494h6.494v6.494h6.494v-6.494h6.494v6.494h6.494v-6.494h12.988v6.494h25.976v-6.494h-6.494v-6.494h19.482v-12.988h6.494v19.482h-12.988v6.494h12.988v-6.494h6.494v-25.976h6.494v12.988h6.494v6.494h-6.494v6.494h6.494v-6.494h6.494v6.494h6.494v6.494h12.988v-6.494h6.494v6.494h6.494v-6.494h12.988v-6.494h6.494v6.494h6.494v6.494h6.494v-6.494h-6.494v-6.494h6.494v-6.494h6.494v12.988h12.988v-6.494h6.494v12.988h6.494v-6.494h6.494v6.494h6.494V487.05h6.494v-6.494h6.494v6.494h6.494v6.494H324.7v6.494h19.482v-6.494h12.988v-12.988h12.988v-19.482h6.494v6.494h6.494v6.494h6.494v-6.494h6.494v-6.494h6.494v-6.494h-6.494v-6.494h-6.494v-12.988h6.494v-6.494h6.494v6.494h6.494v6.494h-6.494v6.494h6.494v-6.494h6.494v-6.494h6.494v6.494h12.988v12.988h-6.494v12.988h-6.494v6.494h-6.494V454.58h6.494v-6.494h-6.494v6.494h-6.494v19.482h-6.494v25.976h6.494V487.05h6.494v-6.494h6.494v-6.494h6.494v-6.494h6.494v-6.494h6.494v12.988h-6.494v6.494h25.976v-6.494h12.988v-6.494h6.494v6.494h6.494v19.482h6.494v-19.482h-6.494v-6.494h6.494V454.58h6.494v-6.494h-6.494v-6.494h6.494v-6.494h-6.494v-6.494h-6.494v-6.494h6.494v-19.482h6.494v-6.494H487.05v12.988h-12.988v-6.494h6.494v-6.494h-19.482v-6.494h6.494v-6.494h12.988v6.494h12.988v-12.988h6.494v-6.494h-6.494v-6.494h-6.494v6.494h-6.494v6.494h-6.494v-12.988h-6.494v-6.494h6.494v-6.494h6.494v6.494h12.988v-6.494h6.494v-12.988h-25.976v-6.494h12.988V324.7h-12.988v-6.494h6.494v-6.494h-6.494v-6.494h12.988v12.988h6.494v-6.494h6.494V292.23h-6.494v-6.494h6.494v-6.494h-6.494v-6.494h6.494v-6.494h-6.494v-19.482h-6.494v6.494h-6.494v12.988h-6.494v-19.482h6.494v-6.494h12.988v-6.494h6.494v-12.988h-6.494v6.494h-19.482v-6.494h12.988v-12.988h6.494v-6.494h6.494v-6.494h-6.494v-12.988h6.494v-6.494h-6.494V162.35h-6.494v6.494h-12.988v-19.482h6.494v6.494h12.988v-12.988h6.494v-6.494h-6.494v-6.494h6.494v-6.494h-6.494v-6.494h6.494v-6.494h-6.494V90.916h6.494v-6.494h-6.494v6.494h-6.494v-6.494h-6.494v-6.494h-6.494v12.988H454.58v6.494h6.494v6.494h-6.494v6.494h-12.988V90.916h6.494V77.928h-6.494v12.988h-25.976v-6.494h-12.988V71.434h-6.494V64.94h12.988v6.494h6.494V64.94h-6.494V51.952h12.988V64.94h12.988v6.494h-6.494v6.494h-6.494v6.494h6.494v-6.494h6.494v-6.494h6.494V51.952h6.494V38.964h-6.494v12.988h-6.494V32.47h12.988V6.494h-6.494v19.482H422.11v-6.494h6.494v-6.494h6.494V6.494h-6.494v6.494h-6.494V0h-6.494v12.988h6.494v6.494h-6.494v6.494h-12.988v6.494h-6.494v-6.494h-32.47v6.494h-12.988v-6.494h6.494v-6.494h-19.482v-6.494H324.7v6.494h-12.988v-6.494h6.494V6.494h12.988V0h-32.47v12.988h-6.494v6.494h-6.494v-6.494h-6.494v6.494h-6.494V6.494H259.76V0h-6.494v19.482h-6.494v25.976h-6.494V19.482h-6.494v6.494h-12.988v-6.494h6.494v-6.494h12.988V0h-6.494v6.494h-6.494V0h-38.964v12.988h-6.494V6.494h-6.494v12.988h6.494v6.494h-12.988v-6.494h-6.494v-6.494h6.494V6.494h-6.494v6.494h-6.494V32.47h-6.494v6.494h-6.494v6.494h-6.494v-6.494h-6.494V32.47h12.988v-6.494h6.494v-6.494h-6.494v6.494h-6.494V12.988h-25.976v6.494h12.988v6.494h-19.482v6.494H97.41V19.482h-6.494v-6.494h6.494V0h-6.494v12.988h-6.494v6.494h-6.494V6.494h6.494V0Zm25.976 0v6.494h32.47V0Zm38.964 0v6.494h12.988V0Zm136.374 0v6.494h6.494V0Zm71.434 0v6.494h-6.494v6.494h6.494V6.494h6.494V0Zm38.964 0v6.494h6.494v6.494h-12.988V6.494h-6.494v12.988h19.482v-6.494h6.494V6.494h-6.494V0ZM194.82 6.494v6.494h-6.494v6.494h6.494v6.494h-6.494v25.976h6.494V38.964h6.494v6.494h6.494v-6.494h6.494v12.988h6.494V64.94h-6.494v-6.494h-6.494v-6.494h-6.494v6.494h6.494v6.494h-6.494v12.988h-6.494v6.494h12.988v-6.494h12.988v-6.494h6.494V64.94h6.494v6.494h6.494v12.988h12.988v-6.494h12.988v6.494h-6.494v6.494h-6.494v19.482h-6.494v-6.494h-6.494v6.494h-6.494v6.494h-6.494v-12.988h-6.494V97.41h-6.494v-6.494h12.988v-6.494h-12.988v6.494h-6.494v6.494h-6.494v-6.494h-12.988v-6.494h-6.494v6.494h-6.494v-6.494h-6.494V97.41h6.494v6.494h-6.494v6.494h-6.494v6.494h-6.494v-6.494h-6.494v-6.494h12.988V97.41h-19.482V84.422h6.494v6.494h6.494v-6.494h-6.494v-6.494h25.976v-6.494h-6.494V58.446h-12.988v6.494h-6.494V51.952h6.494V38.964h-6.494v6.494h-6.494v6.494h-6.494v-6.494h-6.494v-6.494h-6.494v6.494h-6.494v-6.494h-6.494v6.494h-6.494v-6.494H97.41v12.988H84.422v6.494H64.94v6.494h-6.494v6.494h6.494v6.494h12.988v-6.494h6.494v6.494h6.494v6.494h6.494v6.494H77.928v-6.494H58.446V97.41h-6.494v6.494h6.494v6.494h-6.494v19.482H64.94v6.494H51.952v6.494h-6.494v-6.494H32.47v6.494H12.988v6.494h6.494v12.988h6.494v-6.494h6.494v-6.494h6.494v6.494h6.494v-6.494h6.494v6.494h6.494v45.458h6.494v12.988h6.494v-6.494h6.494v32.47h-6.494v-6.494H64.94v19.482h6.494v-6.494H97.41v12.988H84.422v-6.494h-6.494v12.988H64.94v-6.494h-6.494v-6.494h-6.494v-6.494h6.494V227.29h-6.494v-6.494h6.494v-12.988h-6.494v12.988h-6.494v-6.494h-6.494v6.494H32.47v6.494h6.494v6.494h12.988v6.494H25.976V227.29H12.988v6.494h6.494v6.494h-6.494v12.988h6.494v6.494h-6.494v6.494h12.988v-6.494h6.494v12.988h12.988v-6.494h6.494v12.988H38.964v6.494H32.47v6.494h-6.494v6.494h6.494v-6.494h6.494v6.494h12.988v-6.494h6.494v-6.494h12.988v6.494h6.494v6.494h-6.494v6.494H58.446v6.494h6.494v6.494h6.494v-12.988h6.494v-6.494h12.988v6.494h12.988v6.494H90.916V324.7h-6.494v-12.988h-6.494v19.482h12.988V324.7h6.494v25.976h-6.494v6.494h6.494v-6.494h6.494v12.988H97.41v12.988h-6.494v-6.494h-6.494v-19.482h-6.494v19.482h6.494v6.494h-6.494v6.494h-6.494v-6.494H64.94V357.17h6.494v-12.988h6.494v-6.494h-6.494v-6.494H32.47v12.988h6.494v6.494h6.494v6.494h-6.494v6.494h12.988v-6.494h6.494v19.482h-6.494v-6.494H38.964v6.494h12.988v6.494h6.494v6.494h-6.494v6.494h6.494v-6.494h6.494v-6.494h6.494v6.494h12.988v6.494h-6.494v6.494h6.494v-6.494h6.494v19.482h-6.494v6.494h-6.494v-6.494H64.94v6.494h12.988v6.494h-6.494v6.494H64.94v-6.494h-6.494v6.494h6.494v12.988h-6.494v6.494h6.494v19.482h6.494v6.494H64.94v6.494h6.494v-6.494h6.494v-6.494H97.41v6.494h6.494v6.494h6.494v-12.988h6.494v19.482h6.494v-6.494h6.494v-12.988h-12.988v-12.988h6.494v6.494h19.482v6.494h-6.494v19.482h12.988v-12.988h-6.494v-6.494h6.494v-6.494h6.494v-6.494h-6.494v-6.494h6.494v-6.494h-12.988v-6.494h12.988v-6.494h6.494v-6.494h25.976v6.494h6.494v6.494h12.988v6.494h25.976v-12.988h-12.988v-6.494h19.482v12.988h6.494v-12.988h-6.494v-6.494h6.494v-6.494h-6.494v-12.988h-6.494v6.494h-6.494v6.494h-6.494v-6.494h-6.494v-6.494h6.494v-6.494h-6.494v-6.494h19.482v-6.494h6.494v12.988h6.494v12.988h12.988v6.494h6.494v-6.494h6.494v6.494h6.494v6.494h6.494v-6.494h12.988v19.482h-32.47v-6.494h6.494v-6.494h-6.494v6.494h-6.494v12.988h-6.494v6.494h-12.988v6.494h-6.494v6.494h-6.494v-6.494h-6.494v12.988h12.988v6.494h-6.494v12.988h6.494v6.494h6.494v-6.494h-6.494v-12.988h6.494v6.494h6.494v6.494h6.494v-6.494h6.494v6.494h6.494v-6.494h6.494v-6.494h6.494v-6.494h12.988v12.988h-6.494v6.494h6.494v-6.494h6.494v6.494h19.482v-6.494h6.494v-6.494h-25.976V454.58h-6.494v6.494h-6.494v-12.988h6.494v-6.494h19.482v-6.494h-6.494v-6.494h12.988v12.988h6.494V422.11h12.988v6.494h-6.494v12.988h12.988v-6.494h-6.494v-6.494h19.482v-12.988h-12.988v-6.494h-6.494v-12.988h6.494v6.494h12.988v6.494h6.494v19.482h12.988v6.494h-6.494v6.494H357.17v6.494h-12.988v6.494h-6.494v6.494h6.494v19.482h-6.494v6.494h6.494v-6.494h12.988v-6.494h6.494v-6.494h-12.988V454.58h6.494v6.494h6.494v-6.494h6.494v-12.988h6.494v6.494h6.494v-19.482h-6.494v-19.482h-6.494v-6.494h6.494v-6.494h6.494v25.976h6.494v6.494h6.494v-6.494h-6.494v-12.988h6.494v6.494h6.494v6.494h6.494v6.494h6.494v-6.494h6.494v12.988h12.988v6.494h12.988v-12.988h12.988v6.494h6.494v-6.494h-6.494v-6.494h6.494v-6.494h-6.494v-6.494h6.494v-6.494h-6.494v-6.494h-6.494v6.494h6.494v6.494h-6.494v6.494h-6.494V389.64h12.988v-12.988h6.494v-12.988h-6.494v-6.494h6.494v-12.988H454.58v6.494h-12.988v-6.494h6.494v-12.988h-6.494v-12.988h-6.494v-19.482h6.494v-6.494h-32.47v6.494h-6.494v-12.988h6.494v-12.988h-6.494V259.76h6.494v6.494h6.494v6.494h6.494v6.494h6.494v-6.494h-6.494v-6.494h6.494v-12.988h6.494v6.494h6.494v6.494h6.494v6.494h-12.988v12.988h6.494v-6.494h6.494v6.494h6.494v-6.494h6.494v12.988h-12.988v6.494h19.482v-6.494h6.494v6.494h6.494v-6.494h6.494v-12.988h-6.494v-6.494h-19.482v-6.494h6.494v-12.988h-6.494v-12.988h-6.494v12.988h6.494v6.494h-19.482v-6.494h6.494v-12.988h-6.494v6.494h-12.988v-6.494h6.494V227.29h12.988v6.494h12.988v-12.988h6.494v-6.494h6.494v-6.494h6.494v-6.494h12.988v-6.494h-12.988v-19.482h-6.494v12.988h-6.494v12.988h6.494v6.494h-32.47v-6.494h6.494v-12.988h-6.494v12.988h-25.976v6.494h12.988v6.494h-19.482v6.494h-6.494v-45.458h6.494V162.35h6.494v-12.988h-6.494v-6.494h12.988v12.988h6.494v6.494h6.494v-6.494h6.494v-19.482h6.494v6.494h6.494v6.494h-6.494v6.494h12.988v-12.988h19.482v-6.494h6.494v6.494h6.494v-6.494h-6.494v-19.482h-6.494v-6.494h6.494v-6.494h-12.988v12.988h-12.988v-6.494h6.494v-6.494h-6.494v6.494h-6.494v6.494h6.494v6.494h-12.988v6.494h-6.494v-12.988h-12.988v12.988h-12.988v-6.494h6.494v-6.494h-6.494v-6.494h12.988V97.41h-6.494v6.494h-6.494v6.494h-12.988V97.41h12.988v-6.494h-12.988v-6.494h-6.494V71.434h-6.494V64.94h-12.988v6.494h-6.494v12.988h6.494V71.434h6.494v6.494h6.494v6.494h-6.494V97.41h-19.482V84.422h-6.494v-6.494h6.494V64.94h-12.988v6.494h-6.494V64.94h-6.494v-6.494h6.494v-6.494h6.494V38.964h-6.494V25.976h-6.494v-6.494h-6.494v6.494h6.494v12.988h-6.494v6.494h6.494v6.494h-6.494V64.94h6.494v6.494h-6.494v6.494H324.7v6.494h-6.494v6.494h-6.494v-6.494h-6.494V97.41h-6.494V71.434h-12.988V64.94h12.988v-6.494h-6.494V45.458h6.494V32.47h-6.494v-6.494h6.494v-6.494h-6.494v6.494h-6.494v-6.494h-6.494v6.494h6.494v6.494h6.494v12.988h-6.494v-6.494h-6.494v19.482h6.494v6.494h-6.494v12.988h-6.494v-6.494h-6.494V64.94h6.494V51.952h-6.494v-6.494h6.494V25.976H259.76v-6.494h6.494v-6.494h-6.494v6.494h-6.494V32.47h12.988v12.988h-6.494v-6.494h-6.494v12.988h-6.494v6.494h-6.494v-6.494h-6.494V38.964h-6.494V32.47h-25.976v-6.494h12.988v-6.494H194.82v-6.494h6.494V6.494Zm12.988 0v6.494h12.988V6.494ZM51.952 19.482V32.47h6.494V19.482Zm19.482 0v6.494h6.494v-6.494Zm233.784 0v6.494h6.494v-6.494ZM84.422 25.976v19.482h6.494V25.976Zm77.928 6.494v19.482h19.482V32.47Zm142.868 0v19.482H324.7V32.47Zm58.446 0v6.494h-6.494v6.494h6.494v6.494h6.494v6.494h6.494v-6.494h6.494v-6.494h6.494V32.47Zm38.964 0v6.494h-6.494v12.988h-6.494v6.494h12.988v-6.494h6.494v-6.494h6.494v-6.494h6.494v12.988h6.494v6.494h6.494v-6.494h-6.494V32.47ZM51.952 38.964v6.494h6.494v-6.494Zm116.892 0v6.494h6.494v-6.494Zm51.952 0v6.494h6.494v-6.494Zm90.916 0v6.494h6.494v-6.494Zm25.976 0v6.494h6.494v-6.494Zm25.976 0v6.494h6.494v-6.494Zm12.988 0v6.494h6.494v-6.494Zm25.976 0v6.494h6.494v-6.494Zm-292.23 6.494v12.988h-6.494v12.988H90.916V64.94h6.494v-6.494H84.422v12.988h6.494v6.494h19.482v6.494h6.494V97.41h-6.494v-6.494h-6.494v6.494h6.494v6.494h6.494v6.494h-12.988v-6.494H97.41v6.494h6.494v6.494H97.41v6.494h6.494v6.494H97.41v6.494h-6.494v12.988h6.494v6.494H64.94v6.494h32.47v6.494h-6.494v6.494h-6.494v6.494H71.434v-6.494h6.494v-6.494H64.94v19.482h6.494v12.988h6.494v6.494h6.494v12.988h6.494v6.494h-6.494v12.988h6.494V227.29h6.494v6.494h6.494v-6.494h12.988v6.494h-6.494v6.494H97.41v6.494h12.988v-6.494h6.494v12.988h-12.988v6.494h6.494v6.494h12.988v6.494h6.494v-6.494h19.482v-6.494h6.494v12.988h-6.494v6.494h-6.494v6.494h-6.494v6.494h6.494v6.494h-6.494v6.494h6.494v6.494h-19.482v-6.494h6.494V292.23h-19.482v-6.494h19.482v-6.494h-12.988v-6.494h-12.988v-6.494H97.41v6.494h-6.494v-6.494H77.928v6.494h-6.494v12.988h6.494v-6.494h12.988v6.494h6.494v-12.988h6.494v6.494h6.494v6.494h-6.494v6.494h6.494v6.494h-6.494v6.494h6.494v6.494h-6.494v6.494h6.494v6.494h6.494v-6.494h-6.494v-6.494h12.988V324.7h12.988v-6.494h6.494v12.988h-25.976v6.494h-6.494v-6.494h-6.494v6.494h6.494v6.494h-6.494v6.494h6.494v-6.494h12.988v-6.494h12.988v6.494h-6.494v12.988h-6.494v6.494h-6.494v-6.494h-6.494v12.988h-6.494v6.494h6.494v-6.494h12.988v6.494h-6.494v12.988h-12.988v-6.494H97.41v6.494h-6.494v6.494h6.494v6.494h6.494v6.494H97.41v12.988h-6.494v6.494H77.928v6.494h6.494v6.494h-6.494v6.494H97.41v19.482h6.494v-6.494h12.988v-12.988h6.494v-12.988h12.988v6.494h6.494v-6.494h12.988v-6.494h6.494v-6.494h6.494v-6.494h6.494v-6.494h12.988v6.494h-6.494v6.494h12.988v6.494h6.494v-6.494h6.494v6.494h6.494v-19.482h-6.494v6.494h-6.494v-12.988h12.988v-6.494h-12.988v6.494h-6.494v6.494h-6.494v-6.494h-6.494v-6.494h6.494v-6.494h-6.494v-12.988h-25.976v12.988h-12.988v-12.988h6.494v-6.494h25.976v-6.494h6.494v6.494h12.988v6.494h-6.494v6.494h6.494v6.494h12.988v-12.988h12.988v6.494h12.988v-6.494h-12.988V357.17h6.494v-6.494h-6.494v-6.494h6.494v-6.494h-6.494v6.494h-12.988v-6.494h6.494v-6.494h-6.494V324.7h-6.494v-12.988h6.494v6.494h6.494v6.494h6.494v6.494h12.988v6.494h6.494v6.494h-6.494v19.482h-6.494v6.494h6.494v-6.494h6.494v-19.482h6.494v6.494h12.988v-12.988h6.494v6.494h6.494v6.494h-6.494v12.988h6.494v6.494h-6.494v6.494h6.494v12.988h6.494v6.494h-6.494v6.494h19.482v6.494h6.494v-6.494h6.494v6.494H324.7v6.494h6.494v-12.988h-25.976v-6.494h6.494v-6.494h6.494v-12.988h12.988v6.494h12.988v-6.494h-6.494v-6.494h12.988v12.988h6.494v6.494h-6.494v6.494h6.494v-6.494h6.494v6.494h6.494v-6.494h-6.494v-6.494h-6.494v-6.494h12.988v6.494h6.494v-6.494h-6.494v-6.494h-6.494v-6.494h6.494v-6.494h19.482v6.494h6.494v-6.494h6.494v12.988h12.988v-6.494h6.494v6.494h6.494v6.494h-19.482v6.494h6.494v6.494h6.494v12.988h12.988v6.494h6.494v-6.494h-6.494v-6.494h6.494v-6.494H422.11v-6.494h6.494v-6.494h6.494v6.494h6.494v-6.494h-6.494v-6.494h-6.494v-6.494h6.494v-6.494h6.494v12.988h12.988v6.494h6.494v-6.494h-6.494V357.17h-12.988v-6.494h-6.494v6.494h-6.494v-6.494h-6.494v-6.494h-6.494v-6.494h-6.494v-6.494h19.482v6.494h6.494v-6.494h-6.494V324.7h6.494v-6.494h-6.494v-6.494h-19.482v-6.494h12.988v-6.494h-12.988v6.494h-6.494v6.494h6.494v6.494h-6.494v25.976h-6.494v-6.494h-6.494v-6.494h6.494V324.7h-6.494v6.494h-6.494v-12.988h12.988v-6.494h-12.988v6.494h-6.494v6.494h-6.494v-19.482h6.494v-6.494h-6.494v-6.494h-6.494v-6.494h6.494v-6.494h-6.494v-6.494h12.988v-6.494h-12.988v-6.494h-6.494v-12.988h-6.494v-6.494h12.988v12.988h19.482v-12.988h12.988v-6.494h6.494v12.988H389.64v12.988h6.494v-6.494h6.494v-6.494h6.494v-6.494h6.494v12.988h-6.494v6.494h6.494v6.494h6.494v-25.976h6.494v-6.494h-6.494v6.494h-6.494v-6.494h-6.494v-6.494h6.494v-6.494h-6.494v6.494h-12.988v6.494h-12.988v-6.494h-6.494v6.494h6.494v6.494h-6.494v6.494h-6.494v-6.494h-6.494V227.29h-6.494v-6.494h12.988v-12.988H357.17V194.82h-12.988v-12.988h6.494v-6.494h-6.494v-6.494h19.482v12.988h12.988v-6.494h6.494v12.988h-12.988v6.494h-6.494v6.494h6.494v-6.494h12.988v12.988h-6.494v6.494h6.494v6.494h6.494v-6.494h-6.494v-6.494h12.988v-6.494h-6.494v-6.494h6.494v-6.494h-6.494v-6.494h6.494v-12.988h6.494v-6.494h-6.494v6.494h-6.494v6.494h-6.494V162.35h6.494v-6.494h-6.494v6.494h-6.494v6.494h-6.494v-12.988h-6.494v-6.494h6.494v-6.494h6.494v6.494h19.482v-6.494h12.988v-6.494h6.494v-6.494h-6.494v-6.494h6.494v-6.494h-6.494v6.494h-6.494v-6.494h-19.482v6.494h-6.494v6.494h6.494v-6.494h6.494v19.482h-6.494v-6.494h-12.988v-6.494H357.17v-6.494h12.988v-6.494h6.494v-6.494H357.17v6.494h-12.988v12.988h-6.494v-6.494h-6.494v-6.494h6.494v-6.494h6.494v-6.494h12.988V97.41h-6.494v-6.494h-6.494v12.988H324.7V97.41h-6.494v6.494h-12.988v6.494H292.23v6.494h-6.494v6.494h12.988v6.494h12.988v6.494H292.23v12.988h-6.494v6.494h-6.494V129.88h-6.494v12.988h-6.494V129.88h-6.494v-12.988h6.494v6.494h12.988v-19.482h6.494V97.41h-6.494v6.494h-6.494V97.41h-6.494v-6.494h-6.494v6.494h6.494v6.494h-6.494v6.494h-6.494v12.988h-6.494v6.494h-6.494v-12.988h-6.494v19.482h-12.988v12.988h12.988v19.482h-6.494v-6.494h-6.494v12.988h-6.494v6.494h6.494v-6.494h6.494v6.494h6.494v19.482h-6.494v-6.494h-12.988v-6.494h-12.988v19.482h6.494v12.988H194.82v-6.494h-12.988v6.494h-6.494v-6.494h-6.494v-6.494h6.494v-6.494h12.988v6.494h6.494v-6.494h-6.494v-6.494h-6.494v-6.494h6.494V162.35h12.988v6.494h-6.494v12.988h12.988v-6.494h-6.494v-6.494h12.988v-6.494h-6.494v-6.494h6.494v-6.494h-6.494v-6.494h6.494V129.88h6.494v-6.494h6.494v-6.494h-6.494v6.494h-6.494v6.494H194.82v-6.494h6.494v-12.988h6.494v6.494h6.494V97.41h-6.494v6.494h-6.494V97.41h-12.988v-6.494h-6.494v12.988h6.494v6.494h6.494v6.494h-12.988v-6.494h-6.494v6.494H162.35v6.494h-6.494v6.494h-12.988v-6.494h6.494v-12.988h-6.494v12.988h-6.494v-12.988h-6.494v6.494h-12.988v-6.494h6.494v-6.494h-6.494V97.41h12.988v-6.494h6.494v-6.494h6.494V71.434h6.494V64.94h-38.964v-6.494h12.988v-6.494h-6.494v-6.494Zm19.482 6.494v6.494h6.494v-6.494Zm97.41 0v6.494h6.494v-6.494Zm32.47 0v6.494h6.494v-6.494Zm207.808 0v6.494h-19.482v12.988h6.494V64.94h19.482v6.494h6.494V64.94h6.494v12.988h6.494V64.94h6.494v-6.494h-6.494v6.494h-6.494v-6.494h-6.494v-6.494Zm-285.736 6.494v6.494h12.988v-6.494Zm64.94 0v6.494h6.494v-6.494Zm64.94 0v6.494h6.494v6.494h6.494V64.94h-6.494v-6.494ZM25.976 64.94v6.494h6.494V64.94Zm129.88 0v6.494h6.494V64.94ZM6.494 71.434v12.988h12.988V97.41h6.494v12.988h12.988v6.494h6.494v-6.494h-6.494v-6.494h6.494V97.41h-6.494v6.494H32.47V97.41h-6.494V84.422h-6.494v-6.494h-6.494v-6.494Zm103.904 0v6.494h6.494v6.494h12.988V71.434Zm136.374 0v6.494h6.494v-6.494Zm214.302 0v6.494h-6.494v6.494h6.494v-6.494h6.494v-6.494Zm-175.338 6.494v6.494h-12.988v6.494h19.482V77.928Zm45.458 0v6.494H324.7v6.494h6.494v6.494h6.494V84.422h12.988v-6.494ZM64.94 90.916v6.494h-6.494v6.494h6.494v12.988h-6.494v6.494h6.494v6.494h6.494v-6.494h6.494v6.494h6.494v-6.494h6.494v-12.988H77.928v-6.494h6.494V97.41H71.434v-6.494Zm168.844 0v6.494h12.988v-6.494Zm155.856 0v19.482h6.494V90.916Zm84.422 0v6.494h6.494v-6.494ZM136.374 97.41v6.494h6.494V97.41Zm155.856 0v6.494h6.494V97.41Zm25.976 6.494v12.988h-6.494v-6.494h-6.494v6.494h6.494v6.494h6.494v25.976h6.494v-6.494h6.494v-6.494H324.7v-12.988h-6.494v-6.494h6.494v-12.988Zm-51.952 6.494v6.494h6.494v-6.494Zm-240.278 6.494v12.988H12.988v6.494h12.988v-6.494h19.482v-6.494H32.47v-6.494Zm38.964 0v6.494h6.494v-6.494Zm38.964 0v6.494h6.494v-6.494Zm19.482 6.494v6.494h-19.482v6.494H97.41v12.988h6.494v-12.988h6.494v6.494h6.494v6.494h-6.494v6.494h-6.494v6.494h6.494v6.494h-6.494v6.494H90.916v6.494h-6.494v6.494h-6.494v12.988h6.494v6.494h6.494v6.494h6.494v-12.988h-6.494v-6.494h-6.494v-6.494h6.494v-6.494h6.494v12.988h6.494v19.482h6.494v6.494h6.494v6.494h6.494v6.494h-6.494v6.494h6.494v6.494h6.494v6.494h6.494v6.494h6.494v-6.494h12.988v6.494h6.494v-12.988h6.494v-6.494h12.988v12.988h6.494v-19.482h6.494v12.988h6.494v-6.494h6.494v-6.494h25.976v-12.988h-6.494v-6.494h6.494v-6.494h-6.494v-6.494h-12.988v6.494h6.494v6.494h-6.494v6.494h-6.494v12.988H194.82v-12.988h-12.988v12.988h-6.494v-12.988h-6.494v-6.494h-6.494v-6.494h-12.988v-6.494h-6.494v6.494h-6.494v6.494h-6.494V194.82h-6.494v12.988h-6.494v-6.494h-6.494v-6.494h6.494v-6.494h6.494v-6.494h-6.494v6.494h-6.494v-6.494h-6.494v-6.494h12.988V162.35h6.494v12.988h6.494v12.988h6.494v6.494h19.482v-12.988h-6.494v-6.494h6.494V162.35h-6.494v-6.494h-6.494v-6.494h-6.494v-6.494h-6.494v-6.494h12.988v-6.494h-6.494v-6.494Zm58.446 0v6.494h-6.494v12.988H162.35v6.494h6.494v6.494h6.494v-6.494h19.482v-12.988h-6.494v-12.988Zm214.302 0v12.988h6.494v-12.988Zm64.94 0v6.494h6.494v6.494h6.494v-6.494h6.494v-6.494h-6.494v6.494h-6.494v-6.494Zm-305.218 6.494v6.494h-6.494v6.494h6.494v-6.494h12.988v-6.494Zm97.41 0v6.494h-6.494v6.494h-12.988v6.494h6.494v19.482h6.494v6.494h6.494v6.494h-12.988v6.494h12.988v-6.494h6.494v6.494h6.494v6.494h-6.494v6.494h6.494v-6.494h6.494v-6.494h6.494v6.494h6.494v-6.494h6.494v6.494h6.494v6.494h6.494v-6.494h6.494v12.988h6.494v6.494h6.494v12.988h-12.988v6.494h-6.494v-12.988H292.23v12.988h-6.494v-6.494h-6.494v-6.494h-6.494v-6.494H259.76v-6.494h-6.494v25.976h12.988v6.494h-19.482v-6.494h-6.494v6.494h-6.494v6.494h-25.976v6.494h12.988v6.494h6.494v6.494h6.494v6.494h-6.494v6.494h-6.494v12.988h6.494v-12.988h6.494v-6.494h6.494v6.494h12.988v6.494h-6.494v6.494h-6.494v-6.494h-6.494v12.988h-25.976v-6.494h6.494v-12.988h-6.494v12.988H194.82v6.494h-6.494v-12.988h12.988v-19.482h6.494v6.494h6.494V259.76h-12.988v6.494h-6.494v-6.494h-12.988v6.494h-6.494v-12.988h-6.494v12.988h-6.494v6.494h-6.494v6.494h-6.494v12.988h6.494v-12.988h6.494v6.494h19.482v12.988h6.494v6.494h6.494v-6.494h12.988v6.494h12.988v6.494h-6.494v6.494h6.494v6.494h12.988v-6.494h-12.988v-6.494h6.494v-6.494h25.976v6.494h-6.494v6.494h6.494v6.494h-12.988v12.988h6.494v-6.494h6.494v6.494h6.494v-6.494h6.494V324.7h12.988v-12.988h-6.494v6.494h-6.494v-6.494h-6.494v-6.494h6.494v-6.494h6.494v-6.494h-6.494v6.494h-19.482v-6.494h6.494v-6.494h6.494v-6.494h6.494v-6.494h6.494v12.988h25.976v6.494h-19.482v12.988h12.988V324.7h-6.494v12.988h-6.494v-6.494h-6.494v6.494h6.494v6.494h12.988v-6.494h6.494v6.494h6.494v-6.494H324.7v6.494h-6.494v6.494h-6.494v6.494h-6.494v-6.494h-6.494v6.494h-6.494v19.482h12.988v6.494h-19.482v-6.494h-6.494v6.494h6.494v12.988h6.494v6.494h6.494v-6.494h6.494v-6.494h6.494v-19.482h-6.494v-6.494H324.7v6.494h6.494v-6.494h6.494v-6.494h6.494v6.494h6.494v6.494h6.494v-6.494h6.494v-6.494h6.494v-6.494h6.494v-6.494h-6.494v6.494h-6.494V324.7h-12.988v6.494h6.494v12.988h-6.494v-6.494h-6.494v6.494h-6.494v6.494H324.7v-6.494h6.494v-6.494h6.494v-6.494h6.494V324.7h-6.494v6.494h-6.494v6.494H324.7v-6.494h-19.482v6.494h-6.494v-6.494h-6.494V324.7h6.494v-19.482h-6.494v-6.494h6.494v-6.494h6.494v-6.494H324.7v6.494h-12.988v6.494H324.7v-6.494h6.494v-12.988h6.494v6.494h6.494v32.47h6.494v-19.482h6.494v19.482h6.494v-12.988h6.494v-6.494H357.17v-12.988h6.494v-6.494h-6.494v6.494h-12.988v-6.494h-6.494v-12.988h-6.494v-6.494h6.494v-6.494h6.494v-12.988h6.494v-19.482h6.494v-12.988h-6.494v-6.494h-6.494v-6.494h-6.494v-6.494h-6.494v6.494H324.7v-6.494h-25.976v-19.482h-19.482v-12.988h-6.494v-6.494h-6.494v-6.494h-6.494V129.88Zm194.82 0v6.494h6.494v-6.494Zm-331.194 6.494v6.494h6.494v6.494h6.494v6.494h-6.494v6.494h6.494v12.988h6.494v-6.494h6.494v6.494h6.494v-6.494h-6.494v-12.988h-6.494v-6.494h-6.494v-6.494h-6.494v-6.494Zm64.94 0v6.494h6.494v-6.494Zm19.482 0v6.494h6.494v-6.494Zm149.362 0v6.494h6.494v6.494h6.494v-6.494h-6.494v-6.494Zm-311.712 6.494v6.494h6.494v-6.494Zm32.47 0v6.494h6.494v-6.494Zm175.338 0v6.494h12.988v-6.494Zm90.916 0v19.482h19.482v-6.494h-6.494v-6.494h-6.494v-6.494Zm90.916 0v12.988h6.494v-12.988Zm-136.374 6.494v6.494h-6.494v6.494h12.988v-6.494h12.988v-6.494Zm-181.832 6.494v6.494h6.494v-6.494Zm136.374 0v6.494h19.482v12.988h6.494v-19.482ZM32.47 162.35v19.482h19.482V162.35Zm129.88 0v19.482h19.482V162.35Zm142.868 0v19.482H324.7V162.35Zm142.868 0v19.482h19.482V162.35Zm-409.122 6.494v6.494h6.494v-6.494Zm129.88 0v6.494h6.494v-6.494Zm84.422 0v6.494h6.494v-6.494Zm58.446 0v6.494h6.494v-6.494Zm110.398 0v19.482h-6.494v-6.494h-6.494v6.494h6.494v6.494h6.494v-6.494h12.988v-6.494h6.494v-12.988h-6.494v6.494h-6.494v-6.494Zm32.47 0v6.494h6.494v-6.494Zm-435.098 6.494v6.494h6.494v-6.494Zm266.254 0v6.494h6.494v-6.494Zm45.458 0v6.494h6.494v-6.494Zm155.856 0v6.494h6.494v-6.494Zm-350.676 6.494v6.494h12.988v-6.494Zm129.88 0v6.494h6.494v-6.494Zm-240.278 6.494v6.494h19.482v-6.494Zm136.374 0v12.988h6.494v-6.494h6.494v-6.494Zm292.23 0v6.494h6.494v-6.494Zm-207.808 6.494v6.494h-6.494v6.494h6.494v-6.494h6.494v-6.494Zm71.434 0v6.494h6.494v-6.494Zm-38.964 6.494v12.988h25.976v-6.494H292.23v-6.494Zm58.446 0v6.494h6.494v6.494h-6.494v6.494h-6.494v6.494H324.7v6.494h-12.988v6.494h6.494v6.494h-12.988v-6.494h-6.494v6.494h6.494v6.494H292.23v6.494h12.988v12.988h-19.482V259.76h-6.494v6.494h-6.494v-6.494h-6.494v-12.988h-12.988v6.494h-12.988v6.494h-6.494v6.494h6.494v6.494h19.482V259.76h6.494v6.494h6.494v6.494h12.988v6.494h12.988v6.494h6.494v-6.494h6.494v-12.988H324.7v-6.494h6.494v-12.988H324.7v-12.988h12.988v6.494h6.494v-25.976h6.494v-6.494h-6.494v-6.494Zm-194.82 6.494v12.988h-19.482v-6.494h-6.494v6.494h6.494v6.494h12.988v6.494h-6.494v12.988h6.494v6.494h6.494v-6.494h-6.494v-12.988h6.494v-12.988h6.494v6.494h6.494v-6.494h6.494v-6.494h-6.494v6.494h-6.494v-12.988Zm181.832 0v6.494h6.494v-6.494Zm-84.422 6.494v12.988h6.494v-12.988Zm188.326 0v6.494h6.494v-6.494Zm12.988 0v6.494h12.988v-6.494Zm-402.628 6.494v6.494h6.494v-6.494Zm58.446 0v6.494h6.494v-6.494Zm116.892 0v6.494h12.988v-6.494Zm58.446 6.494v6.494h6.494v12.988h12.988v-6.494h-6.494v-6.494h-6.494v-6.494Zm-123.386 6.494v12.988h6.494v-6.494h6.494v-6.494Zm318.206 0v6.494h6.494v-6.494ZM38.964 246.772v6.494H32.47v6.494h6.494v6.494h6.494v-6.494h6.494v6.494h6.494v-6.494h-6.494v-6.494h-6.494v-6.494Zm279.242 0v6.494h-6.494v6.494H324.7v-12.988Zm-279.242 6.494v6.494h6.494v-6.494Zm214.302 0v6.494h6.494v-6.494Zm-129.88 6.494v6.494h6.494v-6.494Zm116.892 0v6.494h6.494v-6.494Zm103.904 0v12.988h12.988v-6.494h-6.494v-6.494Zm-155.856 6.494v6.494h6.494v-6.494Zm194.82 0v12.988h-6.494v6.494h6.494v-6.494h6.494v6.494h6.494v-6.494h6.494v-6.494h-6.494v6.494h-6.494v-12.988Zm103.904 0v6.494h6.494v-6.494Zm-428.604 6.494v6.494h6.494v-6.494Zm103.904 0v6.494h19.482v6.494h6.494v-6.494h-6.494v-6.494Zm155.856 0v6.494h12.988v-6.494Zm-298.724 6.494v6.494h6.494v-6.494Zm19.482 6.494v6.494h6.494v-6.494Zm435.098 0v6.494h6.494v-6.494Zm-305.218 6.494v6.494h6.494v-6.494Zm-25.976 6.494v6.494h6.494v-6.494Zm240.278 0v6.494h6.494v-6.494Zm103.904 0v6.494h6.494v-6.494ZM6.494 305.218v6.494h6.494v-6.494Zm12.988 0v6.494h6.494v-6.494Zm12.988 0V324.7h19.482v-19.482Zm129.88 0V324.7h19.482v-19.482Zm142.868 0V324.7H324.7v-19.482Zm142.868 0V324.7h19.482v-19.482Zm-409.122 6.494v6.494h6.494v-6.494Zm110.398 0V324.7h6.494v-12.988Zm19.482 0v6.494h6.494v-6.494Zm84.422 0v6.494h6.494v-6.494Zm58.446 0v6.494h6.494v-6.494Zm19.482 0v6.494h6.494v-6.494Zm123.386 0v6.494h6.494v-6.494Zm-435.098 6.494v6.494h6.494v-6.494Zm168.844 0v6.494h6.494v-6.494Zm64.94 6.494v6.494h6.494V324.7Zm-103.904 6.494v6.494h12.988v6.494h19.482v12.988h6.494v6.494h6.494v-6.494h6.494v12.988h12.988v-6.494h-6.494v-6.494h-6.494v-6.494h-12.988v-12.988h6.494v6.494h6.494v-6.494h6.494v-6.494h-6.494v6.494h-6.494v-6.494h-6.494v6.494h-6.494v-6.494h-6.494v6.494H162.35v-6.494Zm305.218 0v6.494h12.988v-6.494Zm-415.616 6.494v6.494h6.494v6.494h6.494v-6.494h6.494v-6.494Zm25.976 0v6.494h6.494v-6.494Zm19.482 0v6.494h6.494v-6.494Zm58.446 6.494v6.494h12.988v-6.494Zm201.314 0v6.494h6.494v-6.494Zm38.964 0v6.494h12.988v-6.494Zm19.482 0v6.494h12.988v6.494h-6.494v6.494h6.494v-6.494h6.494v6.494h6.494v-6.494h-6.494v-6.494h-6.494v-6.494Zm84.422 0v6.494h6.494v-6.494Zm-461.074 6.494v6.494h-6.494v6.494h6.494v6.494h6.494v-6.494h-6.494v-6.494h6.494v-6.494Zm32.47 0v6.494h6.494v-6.494Zm103.904 0v6.494h6.494v6.494h6.494v-6.494h-6.494v-6.494Zm51.952 0v6.494h6.494v-6.494Zm103.904 0v6.494h6.494v6.494h6.494v-6.494H324.7v-6.494Zm-175.338 6.494v6.494h-6.494v6.494h-6.494v-6.494h-6.494v6.494h6.494v12.988h-6.494v6.494h-6.494v6.494h-12.988v6.494h6.494v12.988h-6.494v12.988H97.41v6.494h-6.494v6.494h6.494v-6.494h6.494v-6.494h6.494v-6.494h12.988v6.494h-6.494v6.494h-6.494v12.988h-6.494v6.494h6.494v-6.494h6.494v-12.988h6.494v-6.494h6.494v-6.494h6.494v12.988h6.494V422.11h6.494v6.494h6.494v-6.494h6.494v-6.494h6.494v-6.494h6.494v-6.494H162.35V389.64h6.494v6.494h12.988v-6.494h-6.494v-6.494H162.35v6.494h-6.494v6.494h-19.482v12.988h-6.494v-12.988h-6.494v-6.494h12.988v-19.482h6.494v-6.494h12.988v-6.494Zm155.856 0v6.494h6.494v-6.494Zm-45.458 6.494v12.988h6.494v-12.988Zm123.386 0v6.494h6.494v6.494h6.494v-6.494h-6.494v-6.494Zm-363.664 6.494v6.494h6.494v-6.494Zm227.29 0v12.988h6.494v6.494h6.494v12.988h6.494v6.494h6.494v-6.494h-6.494v-6.494h6.494v-6.494h-6.494v-6.494h-12.988v-12.988Zm246.772 0v6.494h6.494v-6.494Zm-428.604 6.494v6.494h6.494v-6.494Zm25.976 0v6.494h6.494v-6.494Zm311.712 0v6.494h-12.988v12.988h6.494v-6.494h6.494v6.494h6.494v6.494h12.988v-6.494h-12.988v-19.482ZM292.23 389.64v6.494h6.494v-6.494Zm32.47 0v6.494h12.988v-6.494Zm-207.808 6.494v6.494h6.494v-6.494Zm32.47 6.494v6.494h6.494v6.494h6.494v-6.494h-6.494v-6.494Zm-32.47 6.494v6.494h12.988v-6.494Zm19.482 0v6.494h6.494v-6.494Zm266.254 0v6.494h12.988v-6.494ZM6.494 415.616v12.988h6.494v-6.494h6.494v-6.494Zm220.796 0v6.494h6.494v-6.494Zm77.928 0v6.494h12.988v-6.494Zm32.47 0v6.494h6.494v-6.494Zm103.904 0v6.494h-12.988v6.494h6.494v6.494h6.494v-6.494h6.494v-12.988Zm12.988 0v6.494h6.494v-6.494Zm25.976 0v6.494h-6.494v6.494h6.494v-6.494h6.494v-6.494ZM32.47 422.11v6.494h12.988v-6.494Zm181.832 12.988v6.494h6.494v-6.494Zm259.76 0v25.976h6.494v-12.988h6.494v6.494h6.494v-6.494h-6.494v-12.988Zm-201.314 6.494v12.988h6.494v-12.988ZM64.94 448.086v6.494h6.494v-6.494Zm71.434 0v12.988h6.494v6.494h6.494v-6.494h-6.494v-12.988Zm25.976 0v19.482h19.482v-19.482Zm25.976 0v12.988h6.494v-12.988Zm64.94 0v6.494h-6.494v6.494h6.494v6.494h-6.494v6.494h6.494v-6.494h6.494v-19.482Zm51.952 0v19.482H324.7v-19.482Zm51.952 0v6.494h6.494v-6.494Zm90.916 0v19.482h19.482v-19.482Zm-324.7 6.494v6.494h6.494v-6.494Zm45.458 0v6.494h6.494v-6.494Zm38.964 0v6.494h-6.494v6.494h6.494v-6.494h6.494v-6.494Zm103.904 0v6.494h6.494v-6.494Zm77.928 0v6.494h6.494v-6.494Zm64.94 0v6.494h6.494v-6.494Zm-376.652 6.494v6.494h12.988v-6.494Zm188.326 0v6.494h12.988v-6.494Zm64.94 6.494v6.494h6.494v-6.494Zm-168.844 6.494v6.494h6.494v-6.494Zm45.458 0v12.988h6.494v6.494h6.494v-12.988h-6.494v-6.494Zm168.844 6.494v6.494h-6.494v6.494h-6.494v6.494h6.494v-6.494h12.988v6.494h12.988v-6.494h-6.494v-6.494h-6.494v-6.494Zm51.952 6.494v6.494h6.494v6.494h6.494v-6.494h-6.494v-6.494Zm19.482 0v6.494h19.482v-6.494Zm25.976 0v12.988h6.494V487.05Z"/></svg>