<svg xmlns="http://www.w3.org/2000/svg" style="display: none;">
  <symbol id="icon-burger" viewBox="0 0 14 12" stroke="none">
    <path d="M13 0H1a1 1 0 1 0 0 2h12a1 1 0 1 0 0-2ZM13 5H1a1 1 0 0 0 0 2h12a1 1 0 1 0 0-2ZM13 10H1a1 1 0 1 0 0 2h12a1 1 0 1 0 0-2Z" />
  </symbol>
  <symbol id="icon-close" viewBox="0 0 28 28" fill="none">
    <path stroke-width="2" d="M.8 27.5 27 1.3M27 27.6.8 1.4" />
  </symbol>
  <symbol id="icon-document" viewBox="0 0 20 20" fill="none">
    <path stroke-linecap="round" stroke-linejoin="round" d="M11.67 1.67H5a1.67 1.67 0 0 0-1.67 1.66v13.34A1.67 1.67 0 0 0 5 18.33h10a1.67 1.67 0 0 0 1.67-1.66v-10l-5-5Z" />
    <path stroke-linecap="round" stroke-linejoin="round" d="M11.67 1.67v5h5M13.33 10.83H6.67M13.33 14.17H6.67M8.33 7.5H6.67" />
  </symbol>
  <symbol id="icon-logo" viewBox="0 0 700 219" stroke="none">
    <path fill="var(--logo-background)" d="M700 0H0v219h700V0Z" />
    <path
      d="M128 76.1v71.4H111V99.7l-27.3 47.8H65.9V76.1h16.9v47.7L110 76.1h17.8Zm63.3 53.9v15.7a45 45 0 0 1-18.5 3.1c-24.3 0-36.5-12-36.5-36 0-25.4 12.6-38 37.8-38 5.2 0 10.9.9 17.1 2.6V93a42.1 42.1 0 0 0-14.6-2.6c-7.7 0-13.4 1.6-17 5-3.6 3.3-5.4 8.8-5.4 16.5 0 7.3 1.8 12.8 5.5 16.2 3.7 3.5 9.3 5.2 17 5.2 4.9 0 9.8-1 14.6-3.2Zm68-53.9v71.4h-16.8V91.2h-25.7v56.3H200V76.1h59.4Zm44.1 58c11.1 0 16.7-7.5 16.7-22.3 0-7.6-1.5-13.2-4.3-16.8-2.9-3.7-7.3-5.5-13.3-5.5-11.3 0-17 7.4-17 22.3 0 14.8 6 22.2 18 22.2Zm-.4 14.7c-11.4 0-20.1-3.1-26.2-9.5-6-6.3-9-15.5-9-27.5 0-11.9 3-21 9.1-27.4a33.8 33.8 0 0 1 25.6-9.6c11.8 0 20.6 3.2 26.5 9.7a39 39 0 0 1 9 27.3c0 12.4-3.1 21.7-9.3 27.8-6 6.2-14.6 9.2-25.7 9.2Zm102.2-72.7v71.4h-16.8V91.2H370a220.5 220.5 0 0 1-1.1 27 58.8 58.8 0 0 1-4.4 19 18 18 0 0 1-4.2 6.3 19.5 19.5 0 0 1-14 5c-2 0-3.6-.2-5-.7v-15.7l2.5.3c2 0 3.6-.5 4.7-1.6 1.2-1.2 2.2-3.4 3-6.8.8-3.3 1.3-7.5 1.6-12.7.3-5.2.6-12.3.7-21.2l.1-14h51.3Zm27.5 0v33l24.1-33h19.4L450 109.5l28 38h-20.3l-25-35.2v35.2h-16.9V76.1h16.8Zm77.4 58c11 0 16.6-7.5 16.6-22.3 0-7.6-1.4-13.2-4.3-16.8-2.8-3.7-7.3-5.5-13.2-5.5-11.3 0-17 7.4-17 22.3 0 14.8 6 22.2 17.9 22.2Zm-.4 14.7c-11.5 0-20.2-3.1-26.2-9.5-6-6.3-9.1-15.5-9.1-27.5 0-11.9 3-21 9.2-27.4a33.8 33.8 0 0 1 25.6-9.6c11.7 0 20.6 3.2 26.5 9.7a39 39 0 0 1 8.9 27.3c0 12.4-3.1 21.7-9.2 27.8-6 6.2-14.6 9.2-25.7 9.2Zm123.7-72.7v71.4H617V94.8l-16 52.7h-15.8l-15.9-52.3v52.3H553V76.1h25.3l15.3 52 15.2-52h24.6Z" />
  </symbol>
  <symbol id="icon-search" viewBox="0 0 21 20" fill="none">
    <path stroke-linecap="round" stroke-linejoin="round" stroke-width="1.992" d="M9.558 15.809a6.639 6.639 0 1 0 0-13.278 6.639 6.639 0 0 0 0 13.278ZM17.856 17.469l-3.61-3.61" />
  </symbol>
  <symbol id="icon-search-2" viewBox="0 0 30 30" fill="none">
    <circle stroke-width="2" r="7.93" transform="rotate(44.3 -5.18 28.72)" />
    <path stroke-width="2" d="M0-.5h9.18" transform="rotate(135.7 2.92 11.08)" />
  </symbol>
  <symbol id="icon-telegram" viewBox="0 0 18 18" stroke="none">
    <path fill-rule="evenodd" clip-rule="evenodd"
      d="M18 9A9 9 0 1 1 0 9a9 9 0 0 1 18 0ZM6.03 8.18c-.9.39-1.83.8-2.68 1.26-.44.32.15.55.7.77l.25.1.21.06c.62.2 1.3.42 1.9.09.97-.56 1.9-1.21 2.82-1.86a111.53 111.53 0 0 1 .95-.67c.26-.16.85-.54.63-.02-.5.56-1.05 1.05-1.6 1.54-.37.34-.74.67-1.1 1.03-.32.26-.65.77-.3 1.13.82.57 1.64 1.13 2.47 1.68l.8.55c.46.36 1.17.07 1.27-.5l.13-.78c.25-1.45.5-2.89.72-4.33l.1-.69c.07-.55.16-1.1.18-1.65-.07-.55-.73-.43-1.1-.3a172.9 172.9 0 0 0-5.7 2.3l-.65.29Z" />
  </symbol>
</svg>
