<?xml version="1.0" encoding="UTF-8"?> <svg xmlns="http://www.w3.org/2000/svg" width="700" height="219" viewBox="0 0 700 219" fill="none"> <g clip-path="url(#clip0_608_1431)"> <path d="M700 0H0V219H700V0Z" fill="#AD0D14"></path> <path d="M127.942 76.0999V147.5H111.112V99.6619L83.776 147.5H65.926V76.0999H82.756V123.836L110.092 76.0999H127.942ZM191.325 129.956V145.664C186.769 147.772 180.581 148.826 172.761 148.826C148.485 148.826 136.347 136.79 136.347 112.718C136.347 87.4219 148.927 74.7739 174.087 74.7739C179.255 74.7739 184.967 75.6579 191.223 77.4259V92.9299C186.395 91.1619 181.533 90.2779 176.637 90.2779C168.885 90.2779 163.207 91.9439 159.603 95.2759C155.999 98.6079 154.197 104.116 154.197 111.8C154.197 119.144 156.033 124.55 159.705 128.018C163.377 131.486 169.021 133.22 176.637 133.22C181.601 133.22 186.497 132.132 191.325 129.956ZM259.368 76.0999V147.5H242.538V91.1959H216.834V147.5H200.004V76.0999H259.368ZM303.435 134.036C314.519 134.036 320.061 126.624 320.061 111.8C320.061 104.184 318.633 98.5739 315.777 94.9699C312.921 91.2979 308.501 89.4619 302.517 89.4619C291.229 89.4619 285.585 96.9079 285.585 111.8C285.585 126.624 291.535 134.036 303.435 134.036ZM303.027 148.826C291.603 148.826 282.865 145.664 276.813 139.34C270.761 133.016 267.735 123.836 267.735 111.8C267.735 99.8999 270.795 90.7539 276.915 84.3619C283.035 77.9699 291.569 74.7739 302.517 74.7739C314.281 74.7739 323.121 78.0039 329.037 84.4639C334.953 90.9239 337.911 100.036 337.911 111.8C337.911 124.244 334.851 133.526 328.731 139.646C322.679 145.766 314.111 148.826 303.027 148.826ZM405.222 76.0999V147.5H388.392V91.1959H370.032C369.964 97.0439 369.862 101.906 369.726 105.782C369.59 109.59 369.318 113.704 368.91 118.124C368.502 122.544 367.958 126.148 367.278 128.936C366.598 131.656 365.68 134.41 364.524 137.198C363.368 139.918 361.974 142.026 360.342 143.522C358.71 145.018 356.704 146.242 354.324 147.194C352.012 148.078 349.326 148.52 346.266 148.52C344.362 148.52 342.73 148.282 341.37 147.806V132.098C342.322 132.302 343.138 132.404 343.818 132.404C345.79 132.404 347.354 131.86 348.51 130.772C349.734 129.616 350.72 127.372 351.468 124.04C352.284 120.708 352.828 116.458 353.1 111.29C353.44 106.054 353.678 98.9819 353.814 90.0739L353.916 76.0999H405.222ZM432.743 76.0999V109.148L456.815 76.0999H476.195L450.083 109.454L478.031 147.5H457.835L432.743 112.31V147.5H415.913V76.0999H432.743ZM510.081 134.036C521.165 134.036 526.707 126.624 526.707 111.8C526.707 104.184 525.279 98.5739 522.423 94.9699C519.567 91.2979 515.147 89.4619 509.163 89.4619C497.875 89.4619 492.231 96.9079 492.231 111.8C492.231 126.624 498.181 134.036 510.081 134.036ZM509.673 148.826C498.249 148.826 489.511 145.664 483.459 139.34C477.407 133.016 474.381 123.836 474.381 111.8C474.381 99.8999 477.441 90.7539 483.561 84.3619C489.681 77.9699 498.215 74.7739 509.163 74.7739C520.927 74.7739 529.767 78.0039 535.683 84.4639C541.599 90.9239 544.557 100.036 544.557 111.8C544.557 124.244 541.497 133.526 535.377 139.646C529.325 145.766 520.757 148.826 509.673 148.826ZM633.356 76.0999V147.5H617.036V94.7659L601.022 147.5H585.212L569.3 95.1739V147.5H552.98V76.0999H578.276L593.576 128.018L608.774 76.0999H633.356Z" fill="white"></path> </g> <defs> <clipPath id="clip0_608_1431"> <rect width="700" height="219" fill="white"></rect> </clipPath> </defs> </svg> 